--40001LOG 18:22:15:826060800 Waiting for file /home/seluser/videos/vid_chrome_or_firefox_40001* to be created...
Won't start video recording due to VIDEO env var false
ffmpeg version 2.8.17-0ubuntu0.1 Copyright (c) 2000-2020 the FFmpeg developers
  built with gcc 5.4.0 (Ubuntu 5.4.0-6ubuntu1~16.04.12) 20160609
  configuration: --prefix=/usr --extra-version=0ubuntu0.1 --build-suffix=-ffmpeg --toolchain=hardened --libdir=/usr/lib/x86_64-linux-gnu --incdir=/usr/include/x86_64-linux-gnu --cc=cc --cxx=g++ --enable-gpl --enable-shared --disable-stripping --disable-decoder=libopenjpeg --disable-decoder=libschroedinger --enable-avresample --enable-avisynth --enable-gnutls --enable-ladspa --enable-libass --enable-libbluray --enable-libbs2b --enable-libcaca --enable-libcdio --enable-libflite --enable-libfontconfig --enable-libfreetype --enable-libfribidi --enable-libgme --enable-libgsm --enable-libmodplug --enable-libmp3lame --enable-libopenjpeg --enable-libopus --enable-libpulse --enable-librtmp --enable-libschroedinger --enable-libshine --enable-libsnappy --enable-libsoxr --enable-libspeex --enable-libssh --enable-libtheora --enable-libtwolame --enable-libvorbis --enable-libvpx --enable-libwavpack --enable-libwebp --enable-libx265 --enable-libxvid --enable-libzvbi --enable-openal --enable-opengl --enable-x11grab --enable-libdc1394 --enable-libiec61883 --enable-libzmq --enable-frei0r --enable-libx264 --enable-libopencv
  libavutil      54. 31.100 / 54. 31.100
  libavcodec     56. 60.100 / 56. 60.100
  libavformat    56. 40.101 / 56. 40.101
  libavdevice    56.  4.100 / 56.  4.100
  libavfilter     5. 40.101 /  5. 40.101
  libavresample   2.  1.  0 /  2.  1.  0
  libswscale      3.  1.101 /  3.  1.101
  libswresample   1.  2.101 /  1.  2.101
  libpostproc    53.  3.100 / 53.  3.100
Input #0, x11grab, from ':80.0':
  Duration: N/A, start: 1605198135.971331, bitrate: N/A
    Stream #0:0: Video: rawvideo (BGR[0] / 0x524742), bgr0, 1366x768, 10 fps, 10 tbr, 1000k tbn, 10 tbc
[libx264 @ 0x1c16320] using cpu capabilities: MMX2 SSE2Fast SSSE3 SSE4.2 AVX FMA3 AVX2 LZCNT BMI2
[libx264 @ 0x1c16320] profile Constrained Baseline, level 3.2
[libx264 @ 0x1c16320] 264 - core 148 r2643 5c65704 - H.264/MPEG-4 AVC codec - Copyleft 2003-2015 - http://www.videolan.org/x264.html - options: cabac=0 ref=1 deblock=0:0:0 analyse=0:0 me=dia subme=0 psy=1 psy_rd=1.00:0.00 mixed_ref=0 me_range=16 chroma_me=1 trellis=0 8x8dct=0 cqm=0 deadzone=21,11 fast_pskip=1 chroma_qp_offset=0 threads=3 lookahead_threads=1 sliced_threads=0 nr=0 decimate=1 interlaced=0 bluray_compat=0 constrained_intra=0 bframes=0 weightp=0 keyint=250 keyint_min=10 scenecut=0 intra_refresh=0 rc=crf mbtree=0 crf=23.0 qcomp=0.60 qpmin=0 qpmax=69 qpstep=4 ip_ratio=1.40 aq=0
Output #0, matroska, to '/home/seluser/videos/vid_chrome_or_firefox_40001.mkv':
  Metadata:
    encoder         : Lavf56.40.101
    Stream #0:0: Video: h264 (libx264) (H264 / 0x34363248), yuv420p, 1366x768, q=-1--1, 10 fps, 1k tbn, 10 tbc
    Metadata:
      encoder         : Lavc56.60.100 libx264
Stream mapping:
  Stream #0:0 -> #0:0 (rawvideo (native) -> h264 (libx264))
Press [q] to stop, [?] for help
[swscaler @ 0x1c21ca0] Warning: data is not aligned! This can lead to a speedloss
frame=    8 fps=0.0 q=10.0 size=      25kB time=00:00:00.40 bitrate= 514.4kbits/s    
frame=   14 fps= 12 q=9.0 size=      28kB time=00:00:01.00 bitrate= 229.0kbits/s    
frame=   20 fps= 11 q=9.0 size=      29kB time=00:00:01.60 bitrate= 146.9kbits/s    
frame=   25 fps= 11 q=9.0 size=      29kB time=00:00:02.10 bitrate= 113.9kbits/s    
frame=   31 fps= 11 q=10.0 size=      52kB time=00:00:02.70 bitrate= 158.1kbits/s    
frame=   37 fps= 11 q=9.0 size=      56kB time=00:00:03.30 bitrate= 138.3kbits/s    
frame=   43 fps= 11 q=9.0 size=      57kB time=00:00:03.90 bitrate= 119.5kbits/s    
frame=   49 fps= 10 q=11.0 size=      89kB time=00:00:04.50 bitrate= 162.0kbits/s    
frame=   54 fps= 10 q=9.0 size=      97kB time=00:00:05.00 bitrate= 158.9kbits/s    
frame=   60 fps= 10 q=9.0 size=     100kB time=00:00:05.60 bitrate= 146.4kbits/s    
frame=   65 fps= 10 q=9.0 size=     101kB time=00:00:06.10 bitrate= 135.5kbits/s    
frame=   70 fps= 10 q=9.0 size=     102kB time=00:00:06.60 bitrate= 126.8kbits/s    
frame=   76 fps= 10 q=9.0 size=     104kB time=00:00:07.20 bitrate= 117.8kbits/s    
frame=   81 fps= 10 q=9.0 size=     104kB time=00:00:07.70 bitrate= 111.0kbits/s    
frame=   87 fps= 10 q=13.0 size=     106kB time=00:00:08.30 bitrate= 104.7kbits/s    
frame=   92 fps= 10 q=9.0 size=     127kB time=00:00:08.80 bitrate= 118.2kbits/s    
frame=   98 fps= 10 q=9.0 size=     130kB time=00:00:09.40 bitrate= 113.2kbits/s    
frame=  103 fps= 10 q=9.0 size=     131kB time=00:00:09.90 bitrate= 108.4kbits/s    
frame=  109 fps= 10 q=17.0 size=     173kB time=00:00:10.50 bitrate= 135.0kbits/s    
frame=  114 fps= 10 q=10.0 size=     236kB time=00:00:11.00 bitrate= 175.5kbits/s    
frame=  120 fps= 10 q=9.0 size=     249kB time=00:00:11.60 bitrate= 175.8kbits/s    
frame=  125 fps= 10 q=17.0 size=     254kB time=00:00:12.10 bitrate= 171.9kbits/s    
frame=  131 fps= 10 q=15.0 size=     285kB time=00:00:12.70 bitrate= 184.0kbits/s    
frame=  137 fps= 10 q=17.0 size=     327kB time=00:00:13.30 bitrate= 201.3kbits/s    
frame=  142 fps= 10 q=10.0 size=     354kB time=00:00:13.80 bitrate= 210.2kbits/s    
frame=  148 fps= 10 q=9.0 size=     369kB time=00:00:14.40 bitrate= 209.8kbits/s    
frame=  154 fps= 10 q=9.0 size=     372kB time=00:00:15.00 bitrate= 203.0kbits/s    
frame=  159 fps= 10 q=9.0 size=     373kB time=00:00:15.50 bitrate= 197.0kbits/s    
frame=  164 fps= 10 q=16.0 size=     392kB time=00:00:16.00 bitrate= 200.9kbits/s    
frame=  170 fps= 10 q=10.0 size=     456kB time=00:00:16.60 bitrate= 225.0kbits/s    
frame=  175 fps= 10 q=9.0 size=     470kB time=00:00:17.10 bitrate= 224.9kbits/s    
frame=  181 fps= 10 q=16.0 size=     556kB time=00:00:17.70 bitrate= 257.2kbits/s    
frame=  186 fps= 10 q=10.0 size=     651kB time=00:00:18.20 bitrate= 293.1kbits/s    
frame=  191 fps= 10 q=9.0 size=     677kB time=00:00:18.70 bitrate= 296.6kbits/s    
frame=  196 fps= 10 q=9.0 size=     678kB time=00:00:19.20 bitrate= 289.1kbits/s    
frame=  201 fps= 10 q=9.0 size=     678kB time=00:00:19.70 bitrate= 281.9kbits/s    
frame=  205 fps= 10 q=9.0 size=     678kB time=00:00:20.10 bitrate= 276.5kbits/s    
frame=  209 fps=9.9 q=9.0 size=     679kB time=00:00:20.50 bitrate= 271.3kbits/s    
frame=  218 fps= 10 q=14.0 size=     717kB time=00:00:21.40 bitrate= 274.5kbits/s    
frame=  224 fps= 10 q=9.0 size=     734kB time=00:00:22.00 bitrate= 273.4kbits/s    
frame=  230 fps= 10 q=9.0 size=     737kB time=00:00:22.60 bitrate= 267.0kbits/s    
frame=  235 fps= 10 q=9.0 size=     737kB time=00:00:23.10 bitrate= 261.3kbits/s    
frame=  241 fps= 10 q=9.0 size=     737kB time=00:00:23.70 bitrate= 254.9kbits/s    
frame=  246 fps= 10 q=9.0 size=     738kB time=00:00:24.20 bitrate= 249.7kbits/s    
frame=  251 fps= 10 q=9.0 size=     738kB time=00:00:24.70 bitrate= 244.8kbits/s    
frame=  257 fps= 10 q=12.0 size=     856kB time=00:00:25.30 bitrate= 277.2kbits/s    
frame=  262 fps= 10 q=9.0 size=     856kB time=00:00:25.80 bitrate= 271.9kbits/s    
frame=  268 fps= 10 q=9.0 size=     857kB time=00:00:26.40 bitrate= 265.8kbits/s    
frame=  273 fps= 10 q=9.0 size=     857kB time=00:00:26.90 bitrate= 261.0kbits/s    
frame=  278 fps= 10 q=9.0 size=     857kB time=00:00:27.40 bitrate= 256.3kbits/s    
frame=  284 fps= 10 q=9.0 size=     857kB time=00:00:28.00 bitrate= 250.8kbits/s    
frame=  289 fps= 10 q=9.0 size=     858kB time=00:00:28.50 bitrate= 246.5kbits/s    
frame=  295 fps= 10 q=9.0 size=     858kB time=00:00:29.10 bitrate= 241.5kbits/s    
frame=  301 fps= 10 q=9.0 size=     858kB time=00:00:29.70 bitrate= 236.7kbits/s    
frame=  306 fps= 10 q=9.0 size=     858kB time=00:00:30.20 bitrate= 232.9kbits/s    
frame=  311 fps= 10 q=9.0 size=     859kB time=00:00:30.70 bitrate= 229.1kbits/s    
frame=  317 fps= 10 q=9.0 size=     859kB time=00:00:31.30 bitrate= 224.8kbits/s    
frame=  322 fps= 10 q=9.0 size=     859kB time=00:00:31.80 bitrate= 221.3kbits/s    
frame=  327 fps= 10 q=11.0 size=     862kB time=00:00:32.30 bitrate= 218.5kbits/s    
frame=  333 fps= 10 q=11.0 size=     871kB time=00:00:32.90 bitrate= 216.8kbits/s    
frame=  339 fps= 10 q=12.0 size=     890kB time=00:00:33.50 bitrate= 217.7kbits/s    
frame=  345 fps= 10 q=9.0 size=     898kB time=00:00:34.10 bitrate= 215.8kbits/s    
frame=  351 fps= 10 q=13.0 size=     925kB time=00:00:34.70 bitrate= 218.3kbits/s    
frame=  357 fps= 10 q=9.0 size=     939kB time=00:00:35.30 bitrate= 218.0kbits/s    
frame=  363 fps= 10 q=9.0 size=     941kB time=00:00:35.90 bitrate= 214.7kbits/s    
frame=  368 fps= 10 q=9.0 size=     942kB time=00:00:36.40 bitrate= 212.1kbits/s    
frame=  373 fps= 10 q=13.0 size=    1008kB time=00:00:36.90 bitrate= 223.9kbits/s    
frame=  378 fps= 10 q=12.0 size=    1110kB time=00:00:37.40 bitrate= 243.2kbits/s    
frame=  384 fps= 10 q=9.0 size=    1150kB time=00:00:38.00 bitrate= 247.9kbits/s    
frame=  389 fps= 10 q=9.0 size=    1155kB time=00:00:38.50 bitrate= 245.8kbits/s    
frame=  395 fps= 10 q=9.0 size=    1156kB time=00:00:39.10 bitrate= 242.1kbits/s    
frame=  401 fps= 10 q=9.0 size=    1156kB time=00:00:39.70 bitrate= 238.6kbits/s    
frame=  407 fps= 10 q=9.0 size=    1157kB time=00:00:40.30 bitrate= 235.2kbits/s    
frame=  412 fps= 10 q=9.0 size=    1157kB time=00:00:40.80 bitrate= 232.4kbits/s    
frame=  417 fps= 10 q=9.0 size=    1158kB time=00:00:41.30 bitrate= 229.7kbits/s    
frame=  423 fps= 10 q=9.0 size=    1158kB time=00:00:41.90 bitrate= 226.5kbits/s    
frame=  428 fps= 10 q=9.0 size=    1159kB time=00:00:42.40 bitrate= 223.9kbits/s    
frame=  434 fps= 10 q=9.0 size=    1160kB time=00:00:43.00 bitrate= 220.9kbits/s    
frame=  440 fps= 10 q=9.0 size=    1160kB time=00:00:43.60 bitrate= 218.0kbits/s    
frame=  446 fps= 10 q=9.0 size=    1161kB time=00:00:44.20 bitrate= 215.2kbits/s    
frame=  451 fps= 10 q=9.0 size=    1161kB time=00:00:44.70 bitrate= 212.9kbits/s    
frame=  457 fps= 10 q=9.0 size=    1162kB time=00:00:45.30 bitrate= 210.1kbits/s    
frame=  463 fps= 10 q=9.0 size=    1163kB time=00:00:45.90 bitrate= 207.5kbits/s    
frame=  468 fps= 10 q=9.0 size=    1163kB time=00:00:46.40 bitrate= 205.4kbits/s    
frame=  473 fps= 10 q=17.0 size=    1164kB time=00:00:46.90 bitrate= 203.2kbits/s    
frame=  479 fps= 10 q=10.0 size=    1193kB time=00:00:47.50 bitrate= 205.7kbits/s    
frame=  484 fps= 10 q=9.0 size=    1196kB time=00:00:48.00 bitrate= 204.1kbits/s    
frame=  490 fps= 10 q=10.0 size=    1201kB time=00:00:48.60 bitrate= 202.4kbits/s    
--40001LOG 18:23:05:156188800 Trapped SIGTERM or SIGINT so shutting down ffmpeg gracefully...
--40001LOG 18:23:05:193451700 Will kill VID_TOOL_PID=662 ...
frame=  493 fps= 10 q=-1.0 Lsize=    1201kB time=00:00:49.30 bitrate= 199.6kbits/s    
video:1197kB audio:0kB subtitle:0kB other streams:0kB global headers:0kB muxing overhead: 0.337922%
[libx264 @ 0x1c16320] frame I:2     Avg QP:13.50  size: 67746
[libx264 @ 0x1c16320] frame P:491   Avg QP:10.10  size:  2220
[libx264 @ 0x1c16320] mb I  I16..4: 100.0%  0.0%  0.0%
[libx264 @ 0x1c16320] mb P  I16..4:  1.8%  0.0%  0.0%  P16..4:  2.1%  0.0%  0.0%  0.0%  0.0%    skip:96.1%
[libx264 @ 0x1c16320] coded y,uvDC,uvAC intra: 14.9% 9.4% 8.6% inter: 0.9% 1.0% 0.6%
[libx264 @ 0x1c16320] i16 v,h,dc,p: 73% 25%  1%  1%
[libx264 @ 0x1c16320] i8c dc,h,v,p: 82% 15%  3%  1%
[libx264 @ 0x1c16320] kb/s:198.85
Exiting normally, received signal 2.
--40001LOG 18:23:06:217853200 Tried to kill -SIGTERM VID_TOOL_PID=662
--40001LOG 18:23:06:244478000 Waiting up to 6s for VID_TOOL_PID=662 to end with SIGTERM...
--40001LOG 18:23:06:296054600 wait_pid successfully managed to SIGTERM:VID_TOOL_PID=662 within less than 6s
--40001LOG 18:23:06:321316100 Will try to fix the videos...
--40001LOG 18:23:06:871992900 Fixing perms for /home/seluser/videos/vid_chrome_or_firefox_40001.mkv*
--40001LOG 18:23:06:919608100 Changing video encoding from mkv to mp4...
--40001LOG 18:23:13:232395900 Conversion from mkv to mp4 succeeded!
--40001LOG 18:23:13:251767500 Cleaning up /home/seluser/videos/vid_chrome_or_firefox_40001.mkv ...
--40001LOG 18:23:13:270005000 Optimizing /home/seluser/videos/vid_chrome_or_firefox_40001.mp4 for HTTP streaming...
--40001LOG 18:23:13:338176400 Succeeded to mp4box_retry.sh within 8s
--40001LOG 18:23:13:353570000 ffmpeg shutdown complete.
